<svg width="343" height="363" viewBox="0 0 343 363" fill="none" xmlns="http://www.w3.org/2000/svg">
<path d="M171.256 361.723C265.228 361.723 341.407 285.45 341.407 191.362C341.407 97.2743 265.228 21.0012 171.256 21.0012C77.2847 21.0012 1.10571 97.2743 1.10571 191.362C1.10571 285.45 77.2847 361.723 171.256 361.723Z" fill="#333438"/>
<mask id="mask0_14_762" style="mask-type:luminance" maskUnits="userSpaceOnUse" x="1" y="21" width="341" height="341">
<path d="M171.256 361.723C265.228 361.723 341.407 285.45 341.407 191.362C341.407 97.2743 265.228 21.0012 171.256 21.0012C77.2847 21.0012 1.10571 97.2743 1.10571 191.362C1.10571 285.45 77.2847 361.723 171.256 361.723Z" fill="white"/>
</mask>
<g mask="url(#mask0_14_762)">
<path fill-rule="evenodd" clip-rule="evenodd" d="M128.029 215.824C130.464 253.91 123.664 267.22 114.593 280.107C105.527 292.994 183.058 371.545 243.969 286.298C224.742 270.313 218.849 270.095 220.27 205.533C221.242 161.051 125.6 177.738 128.029 215.824Z" fill="#F4DBCA"/>
<path fill-rule="evenodd" clip-rule="evenodd" d="M126.873 215.898C126.364 207.938 129.914 200.857 135.975 195.019C144.832 186.489 159.099 180.621 173.437 178.562C185.421 176.842 197.446 177.784 206.416 181.963C215.63 186.255 221.686 193.908 221.431 205.559C220.585 243.915 222.256 259.346 227.915 268.965C231.658 275.336 237.149 279.117 244.713 285.404C245.181 285.795 245.268 286.483 244.911 286.981C227.63 311.166 208.998 322.297 191.37 325.563C164.875 330.474 140.564 317.582 126.232 304.085C120.033 298.251 115.698 292.295 113.814 287.624C112.398 284.106 112.388 281.226 113.646 279.436C122.605 266.705 129.277 253.536 126.873 215.898ZM129.191 215.749C131.656 254.284 124.724 267.74 115.546 280.778C115.138 281.36 114.996 282.126 115.036 283.032C115.092 284.117 115.413 285.37 115.974 286.746C117.766 291.198 121.928 296.836 127.826 302.39C141.72 315.467 165.262 328.03 190.947 323.275C207.893 320.132 225.74 309.443 242.385 286.506C235 280.409 229.641 276.494 225.908 270.145C220.137 260.339 218.243 244.623 219.103 205.508C219.338 194.918 213.806 187.977 205.433 184.076C196.82 180.064 185.273 179.218 173.768 180.869C159.929 182.857 146.136 188.466 137.59 196.698C132.048 202.034 128.727 208.474 129.191 215.749Z" fill="black"/>
<path fill-rule="evenodd" clip-rule="evenodd" d="M9.11963 368.455C9.11963 368.455 11.1474 327.876 30.3197 307.136C36.4982 300.458 60.2961 292.169 72.4855 289.361C102.724 282.403 113.869 275.109 113.869 275.109C113.869 275.109 169.66 361.631 240.327 278.465C240.327 278.465 263.209 286.698 283.705 290.161C296.52 292.32 309.536 296.677 322.759 303.925C349.406 318.529 352.808 365.63 352.808 365.63L9.11963 368.455Z" fill="#7BA0B9"/>
<path fill-rule="evenodd" clip-rule="evenodd" d="M8.07496 368.404C8.07496 368.404 10.1698 327.395 29.5544 306.426C31.4649 304.351 35.0067 302.113 39.3808 299.943C49.3357 294.999 63.659 290.317 72.2508 288.337C102.238 281.441 113.299 274.231 113.299 274.231C113.534 274.08 113.819 274.024 114.087 274.086C114.361 274.142 114.601 274.309 114.752 274.539C114.752 274.539 124.489 289.635 140.963 301.051C151.884 308.624 165.777 314.586 181.771 313.372C198.982 312.064 218.579 302.443 239.528 277.783C239.813 277.453 240.271 277.33 240.684 277.475C240.684 277.475 263.465 285.68 283.878 289.126C296.799 291.302 309.927 295.698 323.262 303.003C334.133 308.959 341.238 320.196 345.819 331.562C352.618 348.436 353.852 365.552 353.852 365.552C353.875 365.843 353.774 366.128 353.579 366.34C353.383 366.553 353.109 366.676 352.819 366.676L9.13079 369.506C8.8403 369.506 8.56657 369.389 8.36547 369.182C8.16436 368.975 8.05821 368.69 8.07496 368.404ZM10.2369 367.398L351.663 364.59C351.266 360.579 349.529 346.378 343.875 332.345C339.473 321.416 332.703 310.57 322.256 304.843C309.145 297.661 296.24 293.338 283.532 291.195C265.035 288.074 244.612 281.083 240.656 279.696C219.384 304.53 199.424 314.133 181.927 315.464C165.408 316.717 151.052 310.598 139.767 302.779C125.271 292.728 115.886 279.886 113.556 276.519C110.378 278.331 98.3557 284.489 72.72 290.384C64.2456 292.331 50.1233 296.951 40.3137 301.823C36.2189 303.853 32.8783 305.911 31.0906 307.846C13.9965 326.343 10.7173 360.792 10.2369 367.398Z" fill="black"/>
</g>
<path fill-rule="evenodd" clip-rule="evenodd" d="M130.103 239.745C130.103 239.745 161.058 274.454 182.637 268.953C204.217 263.449 218.941 244.222 218.941 244.222L218.744 215.171L129.581 213.059L130.103 239.745Z" fill="#ECC1A5"/>
<path fill-rule="evenodd" clip-rule="evenodd" d="M177.389 251.091C154.531 251.091 135.812 231.815 122.173 218.152C108.533 204.49 91.1023 168.616 91.1023 101.329C91.1023 49.7264 118.709 18.3132 167.562 18.3132C216.415 18.3132 250.978 41.1498 250.978 103.593C250.978 135.572 244.541 191.154 234.52 206.638C224.282 222.46 204.183 251.091 177.389 251.091Z" fill="#F4DBCA"/>
<path fill-rule="evenodd" clip-rule="evenodd" d="M177.389 252.26C165.717 252.26 155.092 247.366 145.653 240.699C136.355 234.131 128.212 225.85 121.349 218.976C107.61 205.214 89.9387 169.109 89.9387 101.329C89.9387 75.189 96.973 54.177 110.152 39.6855C123.361 25.1605 142.757 17.1482 167.562 17.1482C192.314 17.1482 213.431 22.9825 228.376 36.6775C243.32 50.3725 252.142 71.9539 252.142 103.593C252.142 126.05 248.976 160.11 243.63 183.852C241.307 194.165 238.554 202.548 235.498 207.271C229.299 216.849 219.51 231.07 206.84 240.922C198.262 247.589 188.369 252.26 177.389 252.26ZM177.389 249.927C187.845 249.927 197.245 245.43 205.412 239.082C217.859 229.403 227.455 215.413 233.544 206.004C236.5 201.437 239.113 193.313 241.359 183.34C246.671 159.749 249.814 125.907 249.814 103.593C249.814 72.7884 241.354 51.7305 226.804 38.3963C212.253 25.0626 191.662 19.4783 167.562 19.4783C143.513 19.4783 124.68 27.1724 111.873 41.2544C99.0355 55.3706 92.2665 75.8664 92.2665 101.329C92.2665 168.125 109.456 203.765 122.996 217.329C129.774 224.118 137.81 232.307 146.995 238.797C156.041 245.184 166.203 249.927 177.389 249.927Z" fill="black"/>
<path d="M135.367 155.537C139.385 155.537 142.643 152.276 142.643 148.253C142.643 144.23 139.385 140.969 135.367 140.969C131.35 140.969 128.092 144.23 128.092 148.253C128.092 152.276 131.35 155.537 135.367 155.537Z" fill="black"/>
<path d="M205.979 153.837C209.997 153.837 213.254 150.576 213.254 146.553C213.254 142.53 209.997 139.269 205.979 139.269C201.961 139.269 198.704 142.53 198.704 146.553C198.704 150.576 201.961 153.837 205.979 153.837Z" fill="black"/>
<path fill-rule="evenodd" clip-rule="evenodd" d="M91.1069 157.943C91.1069 157.943 82.3736 142.109 75.2095 149.521C67.4162 157.583 97.4146 208.717 108.28 197.477L91.1069 157.943Z" fill="#F4DBCA"/>
<path fill-rule="evenodd" clip-rule="evenodd" d="M92.1725 157.479L109.345 197.013C109.532 197.445 109.442 197.948 109.115 198.287C107.034 200.439 104.381 200.753 101.409 199.6C97.5391 198.101 93.0363 193.92 88.7843 188.493C81.5027 179.197 74.8931 166.27 73.2007 157.671C72.7353 155.321 72.6373 153.273 72.9482 151.672C73.1837 150.435 73.6654 149.439 74.369 148.711C75.7366 147.298 77.1625 146.619 78.5753 146.433C80.6307 146.163 82.7 146.971 84.5851 148.342C88.8303 151.434 92.1255 157.38 92.1255 157.38C92.1411 157.413 92.1568 157.446 92.1725 157.479ZM90.0597 158.461L90.0591 158.456C89.7485 157.902 86.8771 152.894 83.2127 150.226C81.8453 149.229 80.3733 148.547 78.8774 148.743C77.919 148.87 76.9711 149.372 76.0448 150.331C75.4994 150.892 75.2403 151.739 75.1366 152.78C75.0158 154.032 75.1485 155.536 75.4802 157.221C77.1251 165.549 83.5654 178.05 90.6165 187.055C94.5563 192.086 98.6624 196.038 102.247 197.427C103.982 198.1 105.569 198.121 106.874 197.165L90.0597 158.461Z" fill="black"/>
<path fill-rule="evenodd" clip-rule="evenodd" d="M250.192 145.045C250.192 145.045 257.063 130.183 264.5 137.32C275.146 147.54 251.848 202.34 240.564 191.515L250.192 145.045Z" fill="#F4DBCA"/>
<path fill-rule="evenodd" clip-rule="evenodd" d="M249.137 144.556C249.137 144.556 251.762 138.921 255.54 136.03C256.938 134.962 258.492 134.262 260.124 134.218C261.773 134.173 263.533 134.782 265.303 136.479C267.725 138.805 268.662 143.23 268.303 148.712C267.514 160.711 260.794 177.943 253.646 187.225C251.353 190.199 248.997 192.368 246.784 193.386C244.236 194.56 241.837 194.347 239.759 192.356C239.471 192.078 239.347 191.671 239.424 191.278L249.052 144.809C249.071 144.722 249.096 144.637 249.137 144.556ZM251.306 145.417L251.306 145.418L241.846 191.072C243.043 191.937 244.397 191.923 245.812 191.27C247.756 190.373 249.783 188.418 251.8 185.802C258.717 176.825 265.214 160.162 265.977 148.559C266.283 143.925 265.741 140.127 263.689 138.161C262.486 137.003 261.314 136.517 260.183 136.547C259.029 136.579 257.944 137.124 256.957 137.883C253.876 140.236 251.678 144.641 251.306 145.417Z" fill="black"/>
<path fill-rule="evenodd" clip-rule="evenodd" d="M149.054 67.0073C127.698 61.1227 137.083 116.095 127.96 120.706C100.341 134.668 115.771 27.1886 149.054 67.0073Z" fill="#ECC1A5"/>
<path fill-rule="evenodd" clip-rule="evenodd" d="M152.066 66.843C164.823 61.9482 163.744 80.8704 171.037 95.5365C178.63 110.811 195.077 119.778 206.533 112.337C232.502 95.4714 172.78 19.2324 152.066 66.843Z" fill="#ECC1A5"/>
<path fill-rule="evenodd" clip-rule="evenodd" d="M150.651 65.8047C150.651 65.8047 132.099 53.7843 129.079 74.5794C124.955 102.969 138.513 131.213 96.3003 134.703L98.441 171.859C83.182 137.673 56.8475 106.117 61.1613 88.337C65.4745 70.5567 90.7062 11.5561 117.44 9.57218C144.174 7.58883 150.785 18.3021 150.785 18.3021C150.785 18.3021 193.849 -38.4797 254.891 54.6809C273.398 82.9261 255.346 110.333 246.976 156.858L241.568 123.508C229.769 123.775 207.67 123.629 195.399 117.436C165.296 102.245 175.761 48.4669 150.651 65.8047Z" fill="#3F2E1E"/>
<path fill-rule="evenodd" clip-rule="evenodd" d="M150.019 66.7829C150.019 66.7829 146.913 64.7732 143.1 63.9012C140.687 63.3497 137.971 63.2368 135.634 64.5327C133.08 65.9489 131.062 69.0185 130.23 74.747C128.585 86.0728 129.768 97.3761 129.077 107.085C128.537 114.677 126.851 121.315 122.059 126.347C117.447 131.189 109.909 134.582 97.527 135.763L99.6024 171.792C99.6348 172.354 99.2622 172.858 98.7164 172.991C98.17 173.125 97.6075 172.849 97.3779 172.335C88.2303 151.84 75.0963 132.292 66.985 116.094C61.4204 104.981 58.2558 95.3748 60.03 88.0617C62.6366 77.3177 72.8204 51.6264 86.3712 32.3628C95.573 19.2819 106.385 9.22415 117.354 8.41034C139.324 6.77991 148.112 13.5992 150.796 16.4696C154.563 12.1623 169.486 -2.84601 192.045 0.477482C209.299 3.01904 231.167 16.3499 255.865 54.0421C265.301 68.4435 265.464 82.6257 262.154 99.1441C258.909 115.336 252.305 133.811 248.121 157.065C248.021 157.623 247.533 158.028 246.966 158.023C246.399 158.018 245.918 157.605 245.828 157.045L240.582 124.695C228.426 124.927 206.951 124.57 194.875 118.477C185.591 113.792 180.031 105.561 176.14 96.7804C172.35 88.2256 170.154 79.1601 167.5 72.5484C166.489 70.0297 165.418 67.8791 164.141 66.2896C162.998 64.8672 161.698 63.9119 160.093 63.6445C157.798 63.2619 154.987 64.2257 151.312 66.7639C150.924 67.0312 150.414 67.0391 150.019 66.7829ZM150.614 64.4248C154.677 61.7473 157.884 60.9139 160.475 61.3451C162.631 61.7048 164.42 62.9185 165.954 64.8286C167.355 66.572 168.552 68.9178 169.66 71.6792C172.306 78.2697 174.489 87.3077 178.268 95.8352C181.946 104.137 187.146 111.966 195.923 116.395C208.046 122.513 229.885 122.606 241.542 122.343C242.123 122.33 242.624 122.748 242.717 123.321L247.075 150.194C251.234 129.914 256.93 113.362 259.872 98.6855C263.053 82.808 262.989 69.1633 253.918 55.3201C229.781 18.4837 208.569 5.26752 191.706 2.78301C166.802 -0.885581 151.712 19.0067 151.712 19.0067C151.48 19.3126 151.112 19.4844 150.729 19.4659C150.346 19.4474 149.997 19.2416 149.795 18.9144C149.795 18.9144 143.345 8.81866 117.526 10.7343C107.108 11.5073 97.0131 21.282 88.2744 33.7046C74.9147 52.6964 64.8616 78.0197 62.2919 88.6115C60.6154 95.5225 63.8075 104.548 69.0659 115.05C76.456 129.807 88.0046 147.344 96.9287 165.844L95.1383 134.77C95.102 134.138 95.5752 133.593 96.2047 133.541C108.476 132.527 115.909 129.426 120.375 124.738C124.799 120.093 126.257 113.929 126.756 106.919C127.45 97.1591 126.273 85.797 127.927 74.4115C128.907 67.6627 131.497 64.1624 134.506 62.494C137.361 60.9111 140.67 60.9553 143.618 61.6293C146.729 62.3407 149.414 63.7374 150.614 64.4248Z" fill="black"/>
<path fill-rule="evenodd" clip-rule="evenodd" d="M97.1238 133.439C97.1238 133.439 118.927 136.211 122.296 111.831C128.217 68.947 125.927 62.3772 138.563 61.343C112.749 66.6968 148.054 135.199 97.1238 133.439Z" fill="#1F150A"/>
<path fill-rule="evenodd" clip-rule="evenodd" d="M103.024 129.929C102.907 129.798 102.214 129.048 102.27 127.836C102.287 127.463 102.371 127.087 102.527 126.748C102.589 126.625 102.778 126.204 103.605 125.437C120.409 109.787 146.318 115.479 146.396 115.514C146.871 115.727 147.396 115.866 147.821 116.173C148.016 116.314 149.134 117.123 149.396 118.724C149.67 120.375 148.832 121.531 148.687 121.732C148.547 121.926 147.737 123.046 146.139 123.309C145.095 123.482 145.089 123.375 144.061 123.134C141.078 122.434 121.995 118.48 108.37 129.097C107.666 129.643 107.136 130.113 107.13 130.114C106.806 130.311 106.505 130.575 106.147 130.705C105.035 131.108 104.119 130.683 103.957 130.609C103.426 130.362 103.421 130.36 103.024 129.929Z" fill="black"/>
<path fill-rule="evenodd" clip-rule="evenodd" d="M187.923 124.981C187.944 124.974 187.949 124.972 187.928 124.98C187.918 124.984 187.913 124.985 187.923 124.981ZM187.923 124.981C187.781 125.028 186.93 125.311 186.114 125.292C185.839 125.285 184.224 125.25 182.911 123.898C182.713 123.692 181.562 122.502 181.602 120.552C181.638 118.663 182.791 117.542 182.993 117.347C183.819 116.548 183.85 116.565 184.938 116.207C191.233 114.136 214.615 108.696 233.588 122.954C234.181 123.401 234.234 123.359 234.63 123.99C234.721 124.14 235.257 124.998 234.996 126.154C234.975 126.244 234.867 126.737 234.529 127.206C234.429 127.351 233.83 128.19 232.644 128.391C232.276 128.454 231.888 128.448 231.524 128.366C230.82 128.206 230.845 128.137 230.24 127.746C218.252 120.023 205.059 120.659 196.339 122.479C191.306 123.529 188.035 124.924 187.923 124.981Z" fill="black"/>
<path fill-rule="evenodd" clip-rule="evenodd" d="M196.577 206.617C196.823 207.017 196.823 207.041 196.717 207.497C196.582 208.056 196.499 208.028 196.007 208.33C193.063 210.149 179.673 218.711 161.986 212.388C161.422 212.185 157.897 210.926 155.182 209.149C154.356 208.605 154.518 208.42 154.702 207.445C154.702 207.441 155.434 206.945 155.439 206.943C156.004 206.826 156.003 206.927 156.501 207.216C160.813 209.725 176.84 216.591 194.488 206.518C194.974 206.239 194.968 206.23 194.985 206.227C195.717 206.059 195.789 206.077 195.856 206.094C196.314 206.204 196.331 206.217 196.577 206.617Z" fill="black"/>
<path fill-rule="evenodd" clip-rule="evenodd" d="M176.892 223.828C170.077 224.041 166.004 223.287 167.848 220.562C169.418 218.252 172.094 220.089 176.937 219.55C180.847 219.114 185.998 216.55 187.126 218.414C188.327 220.39 185.166 223.571 176.892 223.828Z" fill="#ECC1A5"/>
<path fill-rule="evenodd" clip-rule="evenodd" d="M179.569 184.616C179.872 184.969 179.874 184.995 179.834 185.459C179.77 186.271 178.258 187.39 178.083 187.519C176.301 188.836 174.191 189.426 172.64 189.379C171.157 189.334 169.325 188.995 167.077 187.543C166.356 187.079 165.595 186.396 165.595 186.396C165.424 186.153 165.15 185.955 165.082 185.666C165.081 185.656 165.207 184.796 165.213 184.793C165.456 184.613 165.646 184.328 165.943 184.257C166.042 184.233 166.141 184.208 167.187 184.536C169.539 185.272 171.113 185.125 173.936 185.103C176.709 185.081 177.802 184.521 177.933 184.479C178.708 184.226 178.7 184.201 178.774 184.206C179.242 184.245 179.26 184.26 179.569 184.616Z" fill="#E3B294"/>
<path d="M131.465 186.096C139.604 186.096 146.201 182.979 146.201 179.133C146.201 175.288 139.604 172.171 131.465 172.171C123.326 172.171 116.728 175.288 116.728 179.133C116.728 182.979 123.326 186.096 131.465 186.096Z" fill="#F0BBB3"/>
<path d="M213.029 183.614C221.168 183.614 227.765 180.496 227.765 176.651C227.765 172.806 221.168 169.688 213.029 169.688C204.89 169.688 198.292 172.806 198.292 176.651C198.292 180.496 204.89 183.614 213.029 183.614Z" fill="#F0BBB3"/>
<path fill-rule="evenodd" clip-rule="evenodd" d="M106.718 143.695C118.082 130.337 139.507 126.344 160.58 139.568C161.421 140.094 161.931 141.01 161.947 142C162.061 151.3 161.915 159.685 160.113 166.309C158.783 171.208 156.558 175.203 153.074 178.081C149.395 181.117 144.261 182.96 137.016 183.056C112.91 183.375 105.182 162.652 106.028 145.441C106.061 144.799 106.3 144.184 106.718 143.695ZM111.803 146.732C111.428 160.763 117.485 177.488 136.94 177.23C143.404 177.145 147.756 175.504 150.605 172.417C153.536 169.245 154.865 164.701 155.544 159.292C156.13 154.628 156.195 149.351 156.146 143.687C138.861 133.517 121.473 136.147 111.803 146.732Z" fill="black"/>
<path fill-rule="evenodd" clip-rule="evenodd" d="M234.549 140.78C234.864 147.35 234.659 154.536 233.034 160.867C230.397 171.17 224.158 179.299 210.963 180.01C200.981 180.548 193.914 178.627 189.038 174.557C181.887 168.586 179.261 157.607 179.848 141.258C179.874 140.497 180.199 139.776 180.75 139.252C192.053 128.493 212.404 126.417 233.102 138.396C233.957 138.892 234.507 139.79 234.549 140.78ZM228.803 142.661C211.843 133.389 195.319 134.313 185.62 142.69C185.253 155.982 186.841 165.137 192.766 170.083C196.724 173.389 202.543 174.629 210.653 174.192C220.735 173.649 225.38 167.294 227.398 159.419C228.751 154.144 228.987 148.216 228.803 142.661Z" fill="black"/>
<path fill-rule="evenodd" clip-rule="evenodd" d="M162.149 144.612C160.422 145.466 158.327 144.754 157.473 143.023C156.624 141.293 157.333 139.195 159.059 138.342C159.059 138.342 169.724 133.008 181.756 138.274C183.522 139.048 184.326 141.11 183.555 142.878C182.784 144.645 180.723 145.453 178.958 144.68C170.048 140.78 162.149 144.612 162.149 144.612Z" fill="black"/>
<path fill-rule="evenodd" clip-rule="evenodd" d="M91.2664 156.258C91.1778 156.094 90.7575 155.3 91.4344 153.939C91.5458 153.714 92.0938 152.623 93.571 151.631C93.5913 151.616 104.885 144.257 104.889 144.258C105.417 144.1 105.929 143.838 106.481 143.787C106.735 143.763 108.187 143.627 109.513 144.718C110.878 145.842 111.018 147.345 111.043 147.606C111.199 149.313 110.274 150.443 110.113 150.639C109.76 151.067 109.334 151.465 108.83 151.697C107.728 152.202 97.2353 157.018 94.7813 157.394C94.5626 157.428 93.1228 157.647 92.0512 157.031C91.5599 156.749 91.528 156.757 91.2664 156.258Z" fill="black"/>
<path fill-rule="evenodd" clip-rule="evenodd" d="M231.3 144.94C229.598 144.681 228.376 142.995 228.571 141.177C228.767 139.359 230.311 138.093 232.013 138.352L247.999 140.781C249.701 141.04 250.928 142.726 250.728 144.544C250.532 146.362 248.988 147.628 247.286 147.369L231.3 144.94Z" fill="black"/>
<path fill-rule="evenodd" clip-rule="evenodd" d="M80.6219 155.526C75.9629 158.699 100.386 198.623 101.034 191.012C101.275 188.175 97.0625 181.035 91.8896 172.101C87.454 164.436 85.6552 152.092 80.6219 155.526Z" fill="#ECC1A5"/>
<path fill-rule="evenodd" clip-rule="evenodd" d="M262.121 144.726C266.774 147.663 246.53 188.628 245.887 181.584C245.647 178.959 249.759 164.889 252.367 153.649C253.999 146.595 257.082 141.548 262.121 144.726Z" fill="#ECC1A5"/>
<path fill-rule="evenodd" clip-rule="evenodd" d="M100.899 36.8821C97.1965 34.6338 87.9237 51.0692 91.4541 53.2097C95.0751 55.4081 103.601 38.5199 100.899 36.8821Z" fill="white"/>
<path fill-rule="evenodd" clip-rule="evenodd" d="M222.58 38.6045C225.791 35.6961 212.707 22.1048 209.649 24.8788C206.509 27.7232 220.24 40.7272 222.58 38.6045Z" fill="white"/>
<path fill-rule="evenodd" clip-rule="evenodd" d="M215.831 44.0265C218.402 41.6975 207.925 30.8145 205.476 33.0357C202.962 35.3133 213.957 45.7262 215.831 44.0265Z" fill="white"/>
<path fill-rule="evenodd" clip-rule="evenodd" d="M97.2519 28.1794C93.8052 26.0991 87.9188 34.8842 83.8836 41.5892C80.3267 47.5035 80.8505 52.6 81.7548 53.1617C82.6652 53.728 86.3205 50.4847 89.8634 44.8061C94.0199 38.1449 99.8071 29.7188 97.2519 28.1794Z" fill="white"/>
<path fill-rule="evenodd" clip-rule="evenodd" d="M232.741 38.4751C235.719 35.7588 228.141 28.4342 222.875 22.6472C218.23 17.5449 213.665 15.8935 212.869 16.6002C212.066 17.3169 215.562 22.846 219.986 27.8674C225.175 33.7584 230.537 40.4856 232.741 38.4751Z" fill="white"/>
<path fill-rule="evenodd" clip-rule="evenodd" d="M103.61 280.41C103.263 279.861 103.431 279.144 103.973 278.803C104.515 278.456 105.235 278.624 105.576 279.167C105.576 279.167 116.955 297.256 136.127 310.815C148.831 319.807 164.97 326.816 183.505 325.137C203.454 323.328 226.117 311.459 250.273 281.417C250.675 280.919 251.412 280.841 251.91 281.244C252.412 281.647 252.49 282.38 252.088 282.879C227.386 313.598 204.119 325.607 183.712 327.46C164.579 329.19 147.898 322.001 134.781 312.719C115.218 298.879 103.61 280.41 103.61 280.41Z" fill="black"/>
<path fill-rule="evenodd" clip-rule="evenodd" d="M110.017 287.889C109.425 288.14 108.743 287.861 108.492 287.273C108.241 286.68 108.514 285.993 109.106 285.741L117.575 282.133C118.168 281.882 118.855 282.156 119.106 282.748C119.357 283.341 119.078 284.029 118.492 284.281L110.017 287.889Z" fill="black"/>
<path fill-rule="evenodd" clip-rule="evenodd" d="M118.72 295.434C118.201 295.814 117.475 295.702 117.095 295.188C116.715 294.668 116.827 293.935 117.346 293.554L123.826 288.795C124.346 288.414 125.072 288.526 125.452 289.046C125.832 289.561 125.72 290.294 125.206 290.674L118.72 295.434Z" fill="black"/>
<path fill-rule="evenodd" clip-rule="evenodd" d="M127.145 304.506C126.698 304.97 125.96 304.987 125.497 304.54C125.039 304.092 125.022 303.354 125.469 302.89L131.636 296.474C132.083 296.01 132.82 295.993 133.284 296.441C133.748 296.888 133.759 297.626 133.317 298.085L127.145 304.506Z" fill="black"/>
<path fill-rule="evenodd" clip-rule="evenodd" d="M137.541 311.811C137.239 312.381 136.535 312.6 135.965 312.298C135.401 311.995 135.178 311.291 135.479 310.726L139.468 303.158C139.77 302.588 140.474 302.37 141.038 302.672C141.608 302.968 141.826 303.673 141.529 304.243L137.541 311.811Z" fill="black"/>
<path fill-rule="evenodd" clip-rule="evenodd" d="M147.887 318.019C147.635 318.612 146.954 318.886 146.362 318.635C145.77 318.383 145.496 317.695 145.747 317.108L149.406 308.505C149.658 307.912 150.345 307.638 150.931 307.89C151.523 308.142 151.797 308.824 151.546 309.417L147.887 318.019Z" fill="black"/>
<path fill-rule="evenodd" clip-rule="evenodd" d="M159.847 323.059C159.624 323.663 158.953 323.97 158.35 323.752C157.752 323.529 157.439 322.857 157.663 322.253L161.132 312.857C161.355 312.253 162.02 311.945 162.624 312.169C163.227 312.392 163.534 313.064 163.316 313.668L159.847 323.059Z" fill="black"/>
<path fill-rule="evenodd" clip-rule="evenodd" d="M175.349 326.241C175.327 326.885 174.779 327.382 174.137 327.36C173.5 327.332 172.997 326.789 173.025 326.146L173.477 315.206C173.505 314.563 174.047 314.065 174.69 314.093C175.332 314.121 175.829 314.663 175.807 315.307L175.349 326.241Z" fill="black"/>
<path fill-rule="evenodd" clip-rule="evenodd" d="M191.605 324.284C191.806 324.893 191.471 325.553 190.857 325.749C190.248 325.95 189.589 325.615 189.393 325L186.348 315.614C186.147 315.005 186.483 314.345 187.091 314.149C187.706 313.947 188.36 314.283 188.561 314.898L191.605 324.284Z" fill="black"/>
<path fill-rule="evenodd" clip-rule="evenodd" d="M205.525 320.444C205.83 321.008 205.62 321.715 205.05 322.022C204.486 322.324 203.78 322.115 203.475 321.551L198.295 311.952C197.99 311.388 198.2 310.676 198.764 310.374C199.329 310.066 200.035 310.276 200.34 310.845L205.525 320.444Z" fill="black"/>
<path fill-rule="evenodd" clip-rule="evenodd" d="M217.858 312.677C218.232 313.201 218.106 313.932 217.581 314.302C217.056 314.671 216.327 314.549 215.958 314.02L210.4 306.136C210.031 305.612 210.156 304.886 210.682 304.511C211.207 304.142 211.936 304.269 212.305 304.793L217.858 312.677Z" fill="black"/>
<path fill-rule="evenodd" clip-rule="evenodd" d="M220.291 298.612C219.873 298.123 219.92 297.388 220.406 296.968C220.892 296.543 221.627 296.596 222.05 297.079L228.678 304.7C229.101 305.184 229.048 305.919 228.568 306.343C228.081 306.768 227.347 306.716 226.924 306.227L220.291 298.612Z" fill="black"/>
<path fill-rule="evenodd" clip-rule="evenodd" d="M228.968 291.71C228.505 291.262 228.499 290.524 228.946 290.065C229.393 289.601 230.13 289.59 230.594 290.043L237.728 297.012C238.191 297.46 238.197 298.198 237.75 298.656C237.303 299.121 236.566 299.126 236.102 298.679L228.968 291.71Z" fill="black"/>
<path fill-rule="evenodd" clip-rule="evenodd" d="M236.498 285.05C235.956 284.708 235.794 283.987 236.14 283.444C236.487 282.902 237.207 282.745 237.749 283.086L245.391 287.969C245.933 288.316 246.09 289.038 245.743 289.58C245.397 290.123 244.676 290.279 244.134 289.938L236.498 285.05Z" fill="black"/>
<path fill-rule="evenodd" clip-rule="evenodd" d="M150.914 64.5272C150.859 63.5075 149.199 63.0461 149.149 62.0265C149.149 62.0242 148.535 19.6002 148.535 19.6002C148.78 19.0135 148.825 18.2897 149.272 17.8406C149.278 17.8339 151.043 17.1084 151.049 17.1101C151.635 17.3557 152.356 17.3987 152.803 17.8495C153.25 18.3009 153.534 18.9766 153.534 19.6131C153.501 33.7544 152.981 47.8907 152.702 62.0298C152.674 63.6407 151.853 63.2184 150.914 64.5272Z" fill="#1F150A"/>
</svg>
